<svg width="49" height="48" viewBox="0 0 49 48" fill="none" xmlns="http://www.w3.org/2000/svg">
<path d="M24.3334 3C12.7506 3 3.33337 12.4172 3.33337 24C3.33337 35.5828 12.7506 45 24.3334 45C35.9162 45 45.3334 35.5828 45.3334 24C45.3334 12.4172 35.9162 3 24.3334 3Z" fill="#FF5A5F"/>
<path d="M24.3334 29.5301C22.9566 27.7982 22.1467 26.2802 21.8768 24.9813C21.6068 23.926 21.7148 23.0871 22.1737 22.4647C22.6596 21.7341 23.3885 21.3823 24.3334 21.3823C25.2782 21.3823 26.0071 21.7341 26.493 22.4647C26.952 23.0871 27.06 23.926 26.79 24.9813C26.493 26.3072 25.6832 27.8226 24.3334 29.5301ZM31.8706 33.5349C29.576 34.5361 27.3056 32.9396 25.3619 30.7748C28.5771 26.7402 29.171 23.6013 27.7915 21.5691C26.9817 20.4055 25.8208 19.8372 24.3334 19.8372C21.3368 19.8372 19.6874 22.3809 20.3353 25.3331C20.7132 26.9296 21.7121 28.7453 23.3048 30.7748C22.1102 32.1018 20.5428 33.607 18.6616 33.7785C15.935 34.1844 13.7996 31.5325 14.7715 28.7967L21.6851 14.4496C22.2752 13.371 23.0034 12.4472 24.3307 12.4472C25.3025 12.4472 26.0584 13.0154 26.3824 13.4755L33.8899 28.7967C34.6255 30.648 33.6926 32.7463 31.8706 33.5349ZM35.3531 28.2555L28.9254 14.8555C27.7106 12.366 26.8467 10.875 24.3334 10.875C21.8498 10.875 20.7942 12.6068 19.7144 14.8555L13.3137 28.2555C11.9369 32.0466 14.7715 35.375 18.2026 35.375C18.4186 35.375 18.633 35.3479 18.8505 35.3479C20.6322 35.1315 22.4707 33.9949 24.3334 31.9627C26.1961 33.9922 28.0345 35.1315 29.8162 35.3479C30.0337 35.3479 30.2481 35.375 30.4641 35.375C33.8953 35.3777 36.7299 32.0466 35.3531 28.2555Z" fill="white"/>
</svg>
