<svg width="286" height="250" viewBox="0 0 286 250" fill="none" xmlns="http://www.w3.org/2000/svg">
<path d="M206.91 11.9637L0 0L0 38.3663L138.667 45.7921L23.5138 45.7921L23.5138 129.538L128.295 140.264H0L0 250H224L224 100.66L95.7053 87.8713L206.91 87.8713V11.9637Z" fill="#E1F073"/>
<path d="M286 36.9815C275.8 37.9081 269.94 38.7605 266.342 41.5773C262.114 44.876 261.113 50.9173 260 63C258.85 50.4726 257.812 44.4683 253.175 41.2438C249.578 38.7234 243.755 37.9081 234 37.0185C244.163 36.0919 250.06 35.2395 253.621 32.4597C257.886 29.124 258.887 23.1197 260 11C261.039 22.1561 261.966 28.1233 265.415 31.5702C268.864 35.0171 274.873 35.9808 286 36.9815Z" fill="#FFBD13"/>
</svg>
