<svg width="328" height="218" viewBox="0 0 328 218" fill="none" xmlns="http://www.w3.org/2000/svg">
<path d="M61 218V25.1538H165.277V73.3654L170.323 25.1538H246.428V73.3654L255.258 0H328L320.011 111.096H282.589V35.6346L272.077 178.592H211.529V69.5923L197.654 218H61Z" fill="#E1F072"/>
<path d="M52 191.981C41.8003 192.908 35.9401 193.761 32.3424 196.577C28.1141 199.876 27.1127 205.917 26 218C24.8502 205.473 23.8117 199.468 19.1755 196.244C15.5777 193.723 9.75464 192.908 0 192.019C10.1626 191.092 16.0599 190.239 19.6205 187.46C23.8859 184.124 24.8873 178.12 26 166C27.0385 177.156 27.9658 183.123 31.4151 186.57C34.8645 190.017 40.873 190.981 52 191.981Z" fill="#FFBD13"/>
</svg>
