<svg width="81" height="32" viewBox="0 0 81 32" fill="none" xmlns="http://www.w3.org/2000/svg">
<path d="M73.2656 19.2453L67.9257 9.99714C67.8819 9.92064 67.8005 9.87347 67.7123 9.87351H64.2154C64.1806 9.87351 64.1532 9.88644 64.1233 9.89937C64.1128 9.89775 64.1031 9.89129 64.0926 9.89129H62.1647C62.1655 9.87271 62.1663 9.38791 62.1679 9.37014C62.3069 6.89609 64.4707 6.26909 65.2084 6.13739C65.3255 6.11645 65.4102 6.01392 65.4088 5.89499L65.4047 3.31752C65.4046 3.24991 65.3767 3.18534 65.3274 3.13901C65.2782 3.09268 65.2121 3.06869 65.1446 3.0727C63.7435 3.16238 58.8924 4.2564 58.6371 9.37014L58.6338 9.89048H57.1504C57.0936 9.8907 57.0392 9.91346 56.9992 9.95377C56.9592 9.99407 56.9368 10.0486 56.937 10.1054V12.6037C56.937 12.7225 57.0324 12.8194 57.1504 12.8194H58.4027C58.5199 12.8194 58.616 12.9156 58.616 13.0327V23.8961C58.616 24.0294 58.7235 24.1369 58.856 24.1369H61.9021C61.9706 24.1361 62.0354 24.1057 62.0799 24.0537C62.134 24.0087 62.1656 23.9422 62.1663 23.8719V13.0416C62.1663 12.977 62.193 12.918 62.235 12.8744C62.2763 12.8397 62.3282 12.8203 62.3821 12.8194L65.3223 12.7798C65.4113 12.7789 65.4939 12.8262 65.5381 12.9035L69.1999 19.2461C69.2427 19.3207 69.2439 19.4121 69.2031 19.4877L64.3471 28.5218C64.306 28.5983 64.3079 28.6907 64.3523 28.7653C64.3966 28.8399 64.4768 28.8858 64.5636 28.8862H68.0671C68.1572 28.8862 68.2401 28.8364 68.2828 28.757L73.2681 19.4877C73.3095 19.412 73.3086 19.3202 73.2656 19.2453ZM78.3026 10.2145L74.4784 17.3312C74.4361 17.409 74.3552 17.4581 74.2667 17.4598C74.1781 17.4614 74.0955 17.4154 74.0502 17.3393L72.2161 14.2059C72.1723 14.1314 72.1708 14.0395 72.212 13.9635L74.3556 9.99471C74.3971 9.91604 74.4784 9.86642 74.5673 9.86543C75.1321 9.85897 77.211 9.84119 78.0917 9.85089C78.1779 9.85201 78.2571 9.89833 78.3003 9.97286C78.3436 10.0474 78.3444 10.1391 78.3026 10.2145ZM52.5618 15.4583H45.7319C45.6481 15.4593 45.5698 15.4164 45.5257 15.3451C45.4815 15.2738 45.4779 15.1847 45.5162 15.1101C45.8782 14.3966 46.9221 12.8404 49.1505 12.8404C51.3385 12.8404 52.4018 14.3942 52.7759 15.1076C52.8142 15.1823 52.8109 15.2714 52.7672 15.343C52.7235 15.4146 52.6457 15.4583 52.5618 15.4583ZM49.1642 9.32893C45.0306 9.32893 41.6799 12.6982 41.6799 16.8537C41.6799 21.01 45.0306 24.3785 49.1642 24.3785C51.3959 24.3785 54.2788 23.2796 55.8729 20.1697C55.91 20.0947 55.9058 20.0058 55.8618 19.9346C55.8177 19.8635 55.7401 19.8201 55.6564 19.8198H51.9922C51.9318 19.8202 51.8739 19.8439 51.8306 19.8861C51.5569 20.1474 51.2442 20.3647 50.9038 20.53C50.4271 20.7611 49.8494 20.9114 49.1497 20.9114C46.9463 20.9114 45.883 19.4651 45.584 18.6975C45.557 18.6239 45.5678 18.5417 45.613 18.4775C45.6581 18.4133 45.7318 18.3754 45.8103 18.3759L56.2753 18.3776C56.3959 18.3741 56.4964 18.2844 56.5137 18.1651C56.55 17.8718 56.5993 17.5752 56.6155 17.273C56.7436 15.2149 56.0163 13.1952 54.6055 11.6913C53.1947 10.1873 51.2255 9.33252 49.1634 9.32893H49.1642ZM33.7204 20.9082C32.3338 21.2303 30.8792 20.8128 29.8744 19.8045C28.8678 18.7943 28.4518 17.3373 28.7731 15.948C29.1092 14.413 30.3061 13.2129 31.8402 12.8728C33.2268 12.5505 34.6815 12.968 35.6862 13.9765C36.6929 14.9866 37.109 16.4436 36.7875 17.833C36.4512 19.3679 35.2544 20.5679 33.7204 20.9082ZM36.0175 10.0343C32.6619 8.56781 29.8219 10.0254 28.9185 10.6088C28.4451 10.9158 28.4661 9.91391 28.0136 9.91391H25.3553C25.2915 9.9137 25.2303 9.93889 25.1851 9.98391C25.1399 10.0289 25.1145 10.0901 25.1145 10.1539V28.6867C25.1145 28.8192 25.222 28.9274 25.3545 28.9274H28.3731C28.4369 28.9274 28.4981 28.902 28.5431 28.8569C28.5881 28.8117 28.6133 28.7504 28.6131 28.6867V23.4065C28.6131 23.2206 28.8143 23.1035 28.9735 23.1988C29.6393 23.6028 31.1696 24.3793 33.0506 24.3793C37.4218 24.3793 40.9284 20.5914 40.4792 16.1176C40.2101 13.4456 38.4713 11.1081 36.0175 10.0343ZM10.9384 20.9082C9.55181 21.2303 8.09722 20.8128 7.09241 19.8045C6.08617 18.7941 5.67042 17.3372 5.99193 15.948C6.32801 14.413 7.52494 13.2129 9.05905 12.8728C10.4457 12.5505 11.9003 12.968 12.9051 13.9765C13.9114 14.9867 14.3272 16.4437 14.0055 17.833C13.6695 19.368 12.4725 20.5681 10.9384 20.9082ZM13.2363 10.0343C9.88077 8.56781 7.04151 10.0254 6.13656 10.6088C5.66389 10.9158 5.68409 9.91391 5.23162 9.91391H2.57335C2.44081 9.91391 2.33337 10.0214 2.33337 10.1539V28.6867C2.33337 28.8192 2.44084 28.9274 2.57335 28.9274H5.59117C5.65496 28.9274 5.71612 28.902 5.76114 28.8569C5.80617 28.8117 5.83136 28.7504 5.83114 28.6867V23.4065C5.83114 23.2206 6.03233 23.1035 6.19151 23.1988C6.85809 23.6028 8.38842 24.3793 10.2686 24.3793C14.6414 24.3793 18.1465 20.5914 17.6972 16.1176C17.4282 13.4456 15.6902 11.1081 13.2363 10.0343ZM22.7019 9.91472H19.6776C19.6141 9.91429 19.5531 9.93921 19.508 9.98396C19.463 10.0287 19.4376 10.0896 19.4376 10.1531V23.9704C19.4376 24.1038 19.5459 24.2112 19.6784 24.2112H22.7027C22.8354 24.2108 22.9427 24.1031 22.9427 23.9704V10.1547C22.9422 10.0219 22.8347 9.91436 22.7019 9.91391" fill="#B8B9B9"/>
</svg>
