<svg width="92" height="32" viewBox="0 0 92 32" fill="none" xmlns="http://www.w3.org/2000/svg">
<path d="M15.6444 2.9751C8.45092 2.9751 2.61914 8.80672 2.61914 16.0002C2.61914 23.1941 8.45092 29.0252 15.6444 29.0252C22.8387 29.0252 28.6699 23.1941 28.6699 16.0002C28.6699 8.80719 22.8387 2.97572 15.6443 2.97572L15.6444 2.9751ZM21.6178 21.7611C21.3844 22.1437 20.8836 22.265 20.501 22.0302C17.4428 20.1622 13.5929 19.7391 9.05892 20.775C8.62201 20.8745 8.1865 20.6008 8.08696 20.1637C7.98695 19.7266 8.25961 19.2911 8.6976 19.1916C13.6593 18.058 17.9153 18.5461 21.3487 20.6443C21.7313 20.8792 21.8526 21.3785 21.6178 21.7611ZM23.212 18.2145C22.9181 18.6923 22.2928 18.8432 21.8153 18.5492C18.3141 16.3972 12.9771 15.7739 8.83588 17.031C8.2988 17.1932 7.73155 16.8905 7.56855 16.3544C7.40679 15.8173 7.70962 15.2512 8.24576 15.0878C12.9762 13.6525 18.8569 14.3478 22.8776 16.8185C23.3551 17.1125 23.506 17.7378 23.212 18.2146V18.2145ZM23.3489 14.5214C19.1509 12.0279 12.2248 11.7987 8.21668 13.0151C7.57306 13.2103 6.89242 12.847 6.69737 12.2034C6.50233 11.5594 6.86535 10.8793 7.50944 10.6836C12.1104 9.28687 19.7591 9.55673 24.5923 12.426C25.1724 12.7695 25.3622 13.5172 25.0185 14.0954C24.6763 14.6743 23.9266 14.8651 23.3495 14.5214H23.3489ZM38.0567 14.9992C35.8076 14.4629 35.4078 14.0865 35.4078 13.2956C35.4078 12.5484 36.1109 12.0455 37.1576 12.0455C38.1718 12.0455 39.1765 12.4274 40.2311 13.2134C40.2622 13.2372 40.3027 13.2467 40.3415 13.2405C40.382 13.2346 40.4162 13.213 40.4395 13.1805L41.5376 11.6326C41.5827 11.5688 41.5703 11.4809 41.5096 11.4322C40.2544 10.4254 38.8421 9.93593 37.1903 9.93593C34.7624 9.93593 33.0654 11.3932 33.0654 13.4782C33.0654 15.714 34.529 16.5057 37.0581 17.1169C39.2092 17.6126 39.5732 18.0278 39.5732 18.7701C39.5732 19.5929 38.839 20.1046 37.6569 20.1046C36.3442 20.1046 35.2725 19.6613 34.0749 18.6254C34.0453 18.599 34.0049 18.5881 33.9675 18.5897C33.9271 18.5928 33.8913 18.6114 33.8664 18.641L32.6346 20.1062C32.5833 20.1684 32.5895 20.2586 32.6486 20.3115C34.0422 21.5558 35.7562 22.2122 37.6072 22.2122C40.2233 22.2122 41.914 20.7828 41.914 18.5694C41.9187 16.7019 40.8004 15.6675 38.0613 15.0012L38.0567 14.9992ZM47.8339 12.7812C46.7 12.7812 45.7698 13.2279 45.0015 14.1433V13.113C45.0015 13.0316 44.9362 12.9654 44.8553 12.9654H42.841C42.7602 12.9654 42.6948 13.0316 42.6948 13.113V24.5608C42.6948 24.6417 42.7602 24.7086 42.841 24.7086H44.8553C44.9362 24.7086 45.0015 24.6417 45.0015 24.5608V20.9476C45.7698 21.8078 46.7 22.2293 47.8339 22.2293C49.9414 22.2293 52.0754 20.607 52.0754 17.5057C52.0785 14.4038 49.9445 12.7811 47.8354 12.7811L47.8339 12.7812ZM49.733 17.5057C49.733 19.0843 48.7609 20.187 47.3672 20.187C45.9907 20.187 44.9517 19.0345 44.9517 17.5057C44.9517 15.9768 45.9907 14.8245 47.3672 14.8245C48.7375 14.8244 49.733 15.9517 49.733 17.5055V17.5057ZM57.5426 12.7812C54.8284 12.7812 52.7022 14.871 52.7022 17.5395C52.7022 20.1793 54.8144 22.2464 57.5099 22.2464C60.2334 22.2464 62.3659 20.1637 62.3659 17.5057C62.3659 14.8567 60.2474 12.7815 57.5426 12.7815V12.7812ZM57.5426 20.2026C56.0992 20.2026 55.0104 19.0423 55.0104 17.5049C55.0104 15.9606 56.0619 14.8399 57.5099 14.8399C58.9627 14.8399 60.0577 15.9998 60.0577 17.5387C60.0577 19.0827 59 20.2026 57.5426 20.2026ZM68.1612 12.9654H65.9448V10.6998C65.9448 10.6186 65.8795 10.5523 65.7986 10.5523H63.7844C63.7035 10.5523 63.6366 10.6186 63.6366 10.6998V12.9654H62.6692C62.5883 12.9654 62.5229 13.0316 62.5229 13.113V14.8437C62.5229 14.9248 62.5883 14.9913 62.6692 14.9913H63.6366V19.47C63.6366 21.2789 64.5372 22.1966 66.315 22.1966C67.0367 22.1966 67.6355 22.0473 68.2001 21.7269C68.2468 21.702 68.2748 21.6522 68.2748 21.5993V19.9506C68.2748 19.9008 68.2483 19.8526 68.2048 19.8262C68.1612 19.7982 68.1068 19.7966 68.0617 19.82C67.6744 20.0144 67.2995 20.1046 66.8796 20.1046C66.2341 20.1046 65.9448 19.8106 65.9448 19.1543V14.992H68.1612C68.2421 14.992 68.3074 14.9258 68.3074 14.8444V13.1139C68.3105 13.0326 68.2452 12.9663 68.1628 12.9663L68.1612 12.9654ZM75.8822 12.9742V12.696C75.8822 11.8774 76.1964 11.5123 76.8994 11.5123C77.3194 11.5123 77.6569 11.5957 78.0348 11.7217C78.0815 11.7363 78.1297 11.729 78.1671 11.7011C78.2059 11.6733 78.2277 11.6287 78.2277 11.5814V9.88445C78.2277 9.81959 78.1873 9.7622 78.1235 9.74306C77.7253 9.62439 77.2152 9.5026 76.4499 9.5026C74.5912 9.5026 73.6067 10.55 73.6067 12.5305V12.9567H72.6392C72.5583 12.9567 72.4914 13.0229 72.4914 13.1041V14.8437C72.4914 14.9248 72.5583 14.9913 72.6392 14.9913H73.6067V21.898C73.6067 21.9804 73.6735 22.0457 73.7544 22.0457H75.7671C75.8495 22.0457 75.9148 21.9804 75.9148 21.898V14.9917H77.7953L80.6759 21.898C80.3493 22.6228 80.0273 22.7674 79.5887 22.7674C79.234 22.7674 78.8592 22.6617 78.4781 22.4517C78.4424 22.433 78.3988 22.4299 78.3615 22.4408C78.3226 22.4548 78.2899 22.4828 78.2744 22.5201L77.5916 24.018C77.5589 24.0895 77.5869 24.1719 77.6553 24.2093C78.3677 24.595 79.0101 24.7599 79.8049 24.7599C81.2918 24.7599 82.1146 24.0662 82.8379 22.2028L86.3313 13.1758C86.35 13.1304 86.3437 13.0791 86.3157 13.0388C86.2893 12.9988 86.2442 12.9747 86.196 12.9747H84.0993C84.0355 12.9747 83.9795 13.0147 83.9593 13.0736L81.8113 19.2071L79.4596 13.0696C79.4378 13.0125 79.3834 12.9747 79.3227 12.9747H75.8822V12.9742ZM71.4058 12.9654H69.3915C69.3107 12.9654 69.2438 13.0316 69.2438 13.113V21.898C69.2438 21.9804 69.3107 22.0457 69.3915 22.0457H71.4058C71.4867 22.0457 71.5535 21.9804 71.5535 21.898V13.1136C71.5535 13.0322 71.4882 12.966 71.4058 12.966V12.9654ZM70.4103 8.96506C69.6124 8.96506 68.9654 9.61086 68.9654 10.4086C68.9654 11.2068 69.6124 11.8534 70.4103 11.8534C71.2082 11.8534 71.8537 11.2068 71.8537 10.4086C71.8537 9.61101 71.2067 8.96506 70.4103 8.96506ZM88.0516 15.7901C87.2552 15.7901 86.6346 15.1501 86.6346 14.3728C86.6346 13.5956 87.263 12.9483 88.0593 12.9483C88.8557 12.9483 89.4763 13.5881 89.4763 14.3647C89.4763 15.142 88.8479 15.7901 88.0516 15.7901ZM88.0593 13.0892C87.333 13.0892 86.7839 13.6662 86.7839 14.3728C86.7839 15.0791 87.3299 15.6484 88.0516 15.6484C88.7779 15.6484 89.327 15.0718 89.327 14.3647C89.327 13.6584 88.781 13.0892 88.0593 13.0892ZM88.3735 14.5105L88.7748 15.0717H88.4357L88.0749 14.5568H87.7654V15.0717H87.4823V13.5841H88.1449C88.4917 13.5841 88.7188 13.7609 88.7188 14.0586C88.7204 14.3025 88.5788 14.4515 88.3751 14.5105H88.3735ZM88.134 13.8393H87.7654V14.3098H88.134C88.3175 14.3098 88.428 14.2198 88.428 14.0744C88.428 13.9213 88.3175 13.8393 88.134 13.8393Z" fill="#B8B9B9"/>
</svg>
