<svg width="118" height="32" viewBox="0 0 118 32" fill="none" xmlns="http://www.w3.org/2000/svg">
<path d="M39.8898 13.0944C39.8898 11.1925 38.0403 9.17249 34.8398 9.17249C31.2457 9.17249 27.2976 11.809 26.6942 17.0689C26.0777 22.3812 29.3831 24.7423 32.7148 24.7423C36.0465 24.7423 37.7911 23.4437 39.575 21.7122C38.0403 19.7841 36.0596 20.676 35.6793 20.8728C35.2595 21.0826 34.7217 21.3712 33.6199 21.3712C32.3344 21.3712 31.0228 20.7941 31.0228 18.3937C39.2602 17.5804 39.8898 14.9964 39.8898 13.0944ZM35.8104 13.4092C35.758 13.9995 35.5219 15.0095 31.3507 15.5735C32.2295 12.4517 33.9085 12.2156 34.6824 12.2156C35.4038 12.2156 35.8629 12.7796 35.8104 13.4092ZM21.854 13.9208C21.854 13.9208 20.0833 19.4824 19.939 19.9415C19.8865 19.4693 18.5879 9.48729 18.5879 9.48729C15.571 9.48729 13.9577 11.6385 13.1051 13.9077C13.1051 13.9077 10.9539 19.4824 10.7703 19.9546C10.7571 19.5217 10.4423 13.9733 10.4423 13.9733C10.2587 11.1925 7.71402 9.50041 5.65466 9.50041L8.14687 24.6242C11.308 24.6111 13.0132 22.473 13.9052 20.2038C13.9052 20.2038 15.8071 15.285 15.8858 15.062C15.899 15.2718 17.25 24.6242 17.25 24.6242C20.4243 24.6242 22.1295 22.6173 23.0477 20.4268L27.4943 9.50041C24.3594 9.50041 22.7066 11.6385 21.854 13.9208ZM51.5376 9.14625C49.5832 9.14625 48.0878 10.2087 46.8286 11.7696V11.7565L47.9567 2.6665C45.3595 2.6665 43.2477 4.92261 42.8411 8.28054L40.8736 24.5061C42.3689 24.5061 43.956 24.0733 44.8086 22.9715C45.5694 23.9552 46.7106 24.7423 48.4027 24.7423C52.7837 24.7423 55.7875 19.6529 55.7875 14.8783C55.7612 10.5235 53.6494 9.14625 51.5376 9.14625ZM51.131 16.9508C50.6719 19.6135 49.1897 21.4237 47.7599 21.4237C46.3171 21.4237 45.7006 20.7809 45.7006 20.7809C45.976 18.4461 46.1465 17.0164 46.6712 15.7834C47.1959 14.5504 48.442 12.5829 49.7406 12.5829C51.0129 12.5829 51.5901 14.275 51.131 16.9508ZM66.727 9.50041H63.6707L63.6838 9.34301C63.8937 7.34924 64.3659 6.29989 65.9268 6.12937C66.9893 6.02443 67.4615 5.47352 67.5796 4.87014C67.6714 4.39794 67.96 2.75832 67.96 2.75832C61.8212 2.71897 59.8931 5.36859 59.3946 9.40859L59.3815 9.50041H59.3159C58.319 9.50041 57.2172 10.6285 57.0336 12.0582L56.968 12.5829H59.0142L57.2959 26.7754L56.7712 29.32C56.8368 29.32 56.9155 29.3332 56.9811 29.3332C59.8537 29.2282 61.6901 26.959 62.0967 23.6667L63.4346 12.5829H64.3922C65.3366 12.5829 66.4384 11.6385 66.6352 10.0644L66.727 9.50041ZM82.6247 9.23807C79.0962 9.23807 75.7645 11.8352 74.7414 15.9146C73.7183 19.9939 75.2661 24.821 80.4604 24.821C85.6415 24.821 88.6322 19.7972 88.6322 15.6129C88.6322 11.4548 85.8121 9.23807 82.6247 9.23807ZM84.0544 16.8196C83.8708 18.6691 83.0575 21.4761 80.8276 21.4761C78.5847 21.4761 78.8995 18.1969 79.1224 16.636C79.3586 14.9702 80.2898 12.596 82.2967 12.596C84.0938 12.596 84.2643 14.7341 84.0544 16.8196ZM106.065 13.9208C106.065 13.9208 104.294 19.4824 104.149 19.9415C104.097 19.4693 102.798 9.48729 102.798 9.48729C99.7816 9.48729 98.1682 11.6385 97.3156 13.9077C97.3156 13.9077 95.1644 19.4824 94.9808 19.9546C94.9677 19.5217 94.6529 13.9733 94.6529 13.9733C94.4692 11.1925 91.9245 9.50041 89.8652 9.50041L92.3443 24.6242C95.5055 24.6111 97.2107 22.473 98.1026 20.2038C98.1026 20.2038 100.005 15.285 100.07 15.062C100.083 15.2718 101.434 24.6242 101.434 24.6242C104.609 24.6242 106.314 22.6173 107.232 20.4268L111.679 9.50041C108.557 9.50041 106.904 11.6385 106.065 13.9208ZM69.6127 2.75832L67.0418 23.4961L66.5171 26.0539C66.5827 26.0539 66.6614 26.0671 66.727 26.0671C69.4946 26.0277 71.4622 23.6011 71.8294 20.5448L73.3117 8.64781C73.7576 5.01443 71.5933 2.75832 69.6127 2.75832Z" fill="#B8B9B9"/>
</svg>
