<svg width="49" height="48" viewBox="0 0 49 48" fill="none" xmlns="http://www.w3.org/2000/svg">
<circle cx="24.3334" cy="24" r="21" fill="#3290E8"/>
<path fill-rule="evenodd" clip-rule="evenodd" d="M33.3334 12H15.3334C13.698 11.9975 12.3363 13.3676 12.3334 15V33C12.3334 34.6567 13.6769 36 15.3334 36H33.3334C34.9688 36.0025 36.3305 34.6324 36.3334 33V15C36.3334 13.3433 34.9905 12 33.3334 12ZM27.5327 16.4C27.5327 15.9587 27.8915 15.6 28.3334 15.6C28.7752 15.6 29.1334 15.9587 29.1334 16.4V27.0887C29.1334 27.53 28.7746 27.8887 28.3334 27.8887C27.9098 27.889 27.5344 27.5136 27.5334 27.0887L27.5327 16.4ZM23.5327 15.9953C23.5327 15.5533 23.8915 15.1953 24.3334 15.1953C24.7752 15.1953 25.134 15.5533 25.134 15.9953V27.5953C25.134 28.0373 24.7752 28.3953 24.3334 28.3953C23.9098 28.3957 23.5344 28.0203 23.5334 27.5953L23.5327 15.9953ZM19.5334 16.4C19.5334 15.9587 19.8922 15.6 20.3334 15.6C20.7752 15.6 21.1334 15.9587 21.1334 16.4V27.0887C21.1334 27.53 20.7752 27.8887 20.3334 27.8887C19.9098 27.889 19.5344 27.5136 19.5334 27.0887V16.4ZM15.5334 18C15.5334 17.558 15.8915 17.2 16.3334 17.2C16.7752 17.2 17.1334 17.558 17.1334 18V25.1953C17.1334 25.6373 16.7746 25.9953 16.3334 25.9953C15.8972 25.9961 15.5341 25.6307 15.5334 25.1953V18ZM32.8543 30.2027C32.7314 30.3093 29.7673 32.7953 24.3334 32.7953C18.8995 32.7953 15.9374 30.3087 15.8124 30.202C15.4819 29.9188 15.4428 29.405 15.7261 29.0747C16.0022 28.7532 16.5292 28.712 16.8516 28.9867C16.8982 29.026 19.5447 31.1953 24.3327 31.1953C29.1805 31.1953 31.7865 29.01 31.8118 28.9887C32.1338 28.712 32.6627 28.7523 32.9394 29.0747C33.2245 29.4043 33.1859 29.9196 32.8543 30.2027ZM33.1334 25.196C33.1334 25.6373 32.7746 25.996 32.3334 25.996C31.8972 25.9967 31.5341 25.6314 31.5334 25.196V18C31.5334 17.558 31.8915 17.2 32.3327 17.2C32.7746 17.2 33.1334 17.558 33.1334 18V25.196Z" fill="white"/>
</svg>
