<svg width="49" height="48" viewBox="0 0 49 48" fill="none" xmlns="http://www.w3.org/2000/svg">
<path d="M24.6667 3C13.0839 3 3.66669 12.4172 3.66669 24C3.66669 35.5828 13.0839 45 24.6667 45C36.2495 45 45.6667 35.5828 45.6667 24C45.6667 12.4172 36.2495 3 24.6667 3Z" fill="#FDDD4C"/>
<path d="M15.4699 29.4752C15.0108 28.7801 16.1657 27.7279 15.6959 26.8445C15.4251 26.335 14.9825 26.0175 14.451 25.9509C13.9408 25.8868 13.4153 26.0736 13.0803 26.4386C12.5514 27.0141 12.4692 27.7975 12.5715 28.0747C12.6089 28.1764 12.6677 28.2041 12.7099 28.21C12.9979 28.2479 13.16 27.5086 13.2595 27.3547C13.5344 26.9302 14.1588 26.8018 14.59 27.0808C15.4077 27.6096 14.6987 28.4643 14.7599 29.1862C14.8194 29.8891 15.2573 30.1715 15.6505 30.2012C16.0329 30.2158 16.3004 30.0032 16.3679 29.8481C16.5298 29.4779 15.8478 30.0472 15.4699 29.4752Z" fill="#222325"/>
<path d="M32.5532 23.0938C32.3388 23.0641 32.1044 23.0648 31.8605 23.0938C31.6754 22.8601 31.5095 22.4819 31.4159 22.0404C31.2494 21.255 31.2668 20.6861 31.7315 20.6122C32.1962 20.5382 32.4209 21.0134 32.5873 21.7988C32.699 22.3268 32.6776 22.8119 32.5532 23.0938Z" fill="#222325"/>
<path d="M27.4636 23.561C27.482 23.7389 27.4885 23.9189 27.4833 24.0846C27.9329 24.1109 28.2514 24.3245 28.3362 24.46C28.3796 24.53 28.3623 24.5755 28.3482 24.5966C28.3017 24.669 28.2019 24.6578 27.993 24.6344C27.8105 24.6139 27.6139 24.5959 27.4096 24.6053C27.2985 24.9462 26.9689 24.9781 26.7373 24.726C26.5756 24.7753 26.2578 24.9782 26.1632 24.7577C26.1623 24.6483 26.2767 24.4892 26.4839 24.3488C26.3425 24.079 26.2477 23.7901 26.1917 23.491C25.898 23.5439 25.6337 23.6262 25.4266 23.6907C25.3293 23.721 24.9446 23.8948 24.8995 23.6989C24.8694 23.5636 25.08 23.3405 25.3027 23.1795C25.5514 23.0029 25.8275 22.8773 26.1136 22.8049C26.1074 22.3789 26.2161 22.0817 26.5256 22.0325C26.9094 21.9714 27.1472 22.2669 27.3118 22.814C27.7756 22.9428 28.2387 23.2624 28.4432 23.5927C28.5227 23.7207 28.5381 23.8197 28.4866 23.8718C28.3581 24.0051 27.646 23.6189 27.4636 23.561Z" fill="#222325"/>
<path d="M30.5133 25.4757C30.8074 25.6182 31.1311 25.5621 31.2367 25.3503C31.3423 25.1384 31.1892 24.8513 30.895 24.7088C30.6008 24.5662 30.2772 24.6223 30.1716 24.8342C30.0659 25.046 30.2191 25.3331 30.5133 25.4757Z" fill="#222325"/>
<path d="M31.9614 24.4236C31.9668 24.0996 32.1654 23.8409 32.4041 23.8448C32.6428 23.8494 32.832 24.1148 32.8266 24.4382C32.8213 24.7616 32.6227 25.0203 32.384 25.0163C32.1453 25.0124 31.9561 24.747 31.9614 24.4236Z" fill="#222325"/>
<path fill-rule="evenodd" clip-rule="evenodd" d="M38.4344 28.3922C38.4325 28.3855 38.4391 28.4087 38.4344 28.3922C38.9138 28.3922 39.6667 28.9361 39.6667 30.2501C39.6667 31.5576 39.1171 33.0386 38.9874 33.3673C37.0076 38.0506 32.2824 40.6576 26.654 40.4926C21.4066 40.3388 16.9315 37.6058 14.9731 33.1501C13.789 33.1515 12.5681 32.6373 11.64 31.8255C10.6618 30.9702 10.0587 29.8634 9.94106 28.709C9.84946 27.8101 9.96112 26.9739 10.2466 26.2446L9.14674 25.3246C4.11335 21.1296 19.8561 3.85747 24.8908 8.19234C24.9162 8.21412 26.6038 9.84827 26.6078 9.85223C29.0354 8.83478 35.54 6.8976 35.5473 11.4072C35.55 12.9047 34.5831 14.6511 33.034 16.2357C34.8243 17.8747 34.3522 20.2027 34.6373 22.3387L35.2591 22.509C36.4446 22.837 37.2877 23.2746 37.7003 23.7023C38.1128 24.1293 38.3174 24.5431 38.3916 25.0282C38.4612 25.4196 38.4518 26.1106 37.9289 26.8835C38.1172 27.382 38.2891 27.8791 38.4344 28.3922ZM14.8842 31.9351C15.06 31.939 15.2345 31.9278 15.4057 31.8988C17.2451 31.5892 17.7265 29.6172 17.4236 27.6807C17.0813 25.4942 15.5829 24.7233 14.5659 24.6685C14.2831 24.654 14.0203 24.6791 13.8037 24.722C11.9884 25.083 10.9634 26.6076 11.1653 28.5876C11.3478 30.3795 13.1839 31.8902 14.8842 31.9351ZM10.7728 25.2592C11.3819 24.386 12.3775 23.7544 13.5075 23.5373C14.9457 19.7265 17.3474 16.2153 20.526 13.799C22.8849 11.8566 25.429 10.4634 25.429 10.4634C25.429 10.4634 24.059 8.89523 23.6452 8.77973C21.0997 8.10126 15.6023 11.8434 12.092 16.7881C10.6719 18.7886 8.63859 22.3315 9.61076 24.1537C9.73045 24.3794 10.4091 24.9596 10.7728 25.2592ZM31.4099 31.0599C31.4139 31.1008 31.3885 31.1431 31.3517 31.1583C31.3517 31.1583 29.3064 32.0974 26.0575 31.1055C26.1744 32.0793 27.3553 32.4484 28.1804 32.5819C32.2062 33.2656 35.9699 30.9933 36.817 30.4211C36.9625 30.3228 36.8152 30.5754 36.7889 30.6125C35.7519 31.9331 32.9637 33.4623 29.3365 33.4617C27.7545 33.461 26.1732 32.9112 25.5928 32.0658C24.6922 30.7544 25.5481 28.8397 27.0491 29.039C29.5864 29.3218 32.1875 29.1093 34.5363 28.0332C36.5843 27.0947 37.3579 26.0624 37.2416 25.2262C37.0612 23.9302 35.1398 23.7276 34.1686 23.4125C33.746 23.2746 33.5374 23.1644 33.49 22.3796C33.4692 22.0371 33.409 20.8419 33.387 20.3475C33.3482 19.4823 33.2426 18.2989 32.4991 17.8105C32.3052 17.6831 32.0899 17.6217 31.8632 17.6098C31.6825 17.6012 31.5753 17.626 31.5177 17.6394C31.5047 17.6424 31.4943 17.6448 31.4861 17.6461C31.0846 17.7135 30.8386 17.9166 30.5485 18.1562C30.5318 18.17 30.5149 18.1839 30.4979 18.1979C29.5705 18.9609 28.7875 19.0856 27.9163 19.0486C27.645 19.0373 27.3653 19.0102 27.0703 18.9816C26.799 18.9553 26.5147 18.9277 26.212 18.91L25.8422 18.8889C24.3833 18.815 22.8187 20.0584 22.5586 21.8246C22.2681 23.796 23.3699 25.0035 24.0866 25.7888C24.2636 25.9828 24.4172 26.1511 24.5204 26.2987C24.5866 26.3878 24.6635 26.5132 24.6635 26.6327C24.6635 26.7752 24.5699 26.8881 24.4783 26.9844C22.9899 28.4952 22.5138 30.8956 23.0748 32.896C23.145 33.1455 23.2339 33.3844 23.3389 33.6128C24.6548 36.6481 28.7374 38.0618 32.725 36.7762C35.5198 35.875 37.9891 33.6975 38.4919 30.6936C38.6116 29.9109 38.4358 29.6086 38.1964 29.4627C37.943 29.309 37.6394 29.3624 37.6394 29.3624C37.6394 29.3624 37.501 28.4272 37.1092 27.5771C35.9465 28.4826 34.4501 29.1189 33.3108 29.4416C31.4853 29.9585 29.5135 30.1598 27.6272 29.916C26.8622 29.8172 26.3481 29.7508 26.1278 30.4574C28.6438 31.3668 31.3069 30.9774 31.3069 30.9774C31.3584 30.9722 31.4045 31.0091 31.4099 31.0599ZM24.1506 13.4109C22.7746 14.1059 21.2381 15.3434 19.9905 16.767C19.9463 16.8178 20.0119 16.8878 20.066 16.8489C21.1438 16.0747 22.6215 15.3553 24.5572 14.8893C26.7255 14.3673 28.8129 14.5864 30.088 14.8748C30.1522 14.8893 30.1923 14.7804 30.1355 14.7488C29.293 14.2821 27.9999 13.9653 27.0825 13.9587C27.0377 13.9581 27.0123 13.9066 27.0391 13.871C27.1975 13.6604 27.4148 13.4525 27.6134 13.302C27.6576 13.2677 27.6308 13.1971 27.5746 13.2004C26.4335 13.2696 23.827 14.458 23.8364 14.4148C23.9032 14.098 24.1139 13.6796 24.2228 13.4842C24.2489 13.438 24.1981 13.3872 24.1506 13.4109Z" fill="#222325"/>
</svg>
