<svg width="32" height="32" viewBox="0 0 32 32" fill="none" xmlns="http://www.w3.org/2000/svg">
<path d="M19 10C19 10.394 18.9224 10.7841 18.7716 11.1481C18.6209 11.512 18.3999 11.8427 18.1213 12.1213C17.8427 12.3999 17.512 12.6209 17.1481 12.7716C16.7841 12.9224 16.394 13 16 13C15.606 13 15.2159 12.9224 14.8519 12.7716C14.488 12.6209 14.1573 12.3999 13.8787 12.1213C13.6001 11.8427 13.3791 11.512 13.2284 11.1481C13.0776 10.7841 13 10.394 13 10C13 9.60603 13.0776 9.21593 13.2284 8.85195C13.3791 8.48797 13.6001 8.15726 13.8787 7.87868C14.1573 7.6001 14.488 7.37913 14.852 7.22836C15.2159 7.0776 15.606 7 16 7C16.394 7 16.7841 7.0776 17.1481 7.22836C17.512 7.37913 17.8427 7.6001 18.1213 7.87868C18.3999 8.15726 18.6209 8.48797 18.7716 8.85195C18.9224 9.21593 19 9.60603 19 10L19 10Z" stroke="#7A7B7C" stroke-width="1.5" stroke-linecap="round" stroke-linejoin="round"/>
<path d="M16 13V20.3333" stroke="#7A7B7C" stroke-width="1.5" stroke-linecap="round"/>
<path d="M12 17.3335C9.03656 17.988 7 19.4296 7 21.0001C7 23.2093 11.0294 25.0001 16 25.0001C20.9706 25.0001 25 23.2093 25 21.0001C25 19.4296 22.9634 17.988 20 17.3335" stroke="#7A7B7C" stroke-width="1.5" stroke-linecap="round" stroke-linejoin="round"/>
</svg>
