<svg width="282" height="273" viewBox="0 0 282 273" fill="none" xmlns="http://www.w3.org/2000/svg">
<path d="M0 214.753V0H198.782V198.545L90.494 195.507L212 209.688V273L46.2638 259.831V226.909L143.875 234L0 214.753Z" fill="#E1F073"/>
<path d="M282 224.981C271.8 225.908 265.94 226.761 262.342 229.577C258.114 232.876 257.113 238.917 256 251C254.85 238.473 253.812 232.468 249.175 229.244C245.578 226.723 239.755 225.908 230 225.019C240.163 224.092 246.06 223.239 249.621 220.46C253.886 217.124 254.887 211.12 256 199C257.039 210.156 257.966 216.123 261.415 219.57C264.864 223.017 270.873 223.981 282 224.981Z" fill="#FFBD13"/>
</svg>
