<svg width="64" height="64" viewBox="0 0 64 64" fill="none" xmlns="http://www.w3.org/2000/svg">
<rect x="0.5" y="0.5" width="63" height="63" rx="31.5" fill="#FBFBFB"/>
<rect x="0.5" y="0.5" width="63" height="63" rx="31.5" stroke="#EDEDEE"/>
<path fill-rule="evenodd" clip-rule="evenodd" d="M27.7829 25.459C27.7607 25.459 27.7176 25.459 27.6954 25.459C27.3259 25.4139 27.0218 25.0754 27.0218 24.6918C26.9996 24.3307 26.8037 15.8911 31.5646 13.9731C32.7604 13.4991 33.8702 13.5893 34.8048 14.289C35.9561 15.1239 36.7825 16.7938 37.2824 19.2309C37.6296 20.9459 37.6949 22.4351 37.6949 22.5029C37.7172 22.8639 37.4353 23.1348 37.0644 23.067C36.695 23.0219 36.3909 22.6835 36.3909 22.3223C36.3256 20.7879 35.8256 16.5682 34.1743 15.3495C33.6521 14.966 32.9993 14.9208 32.2174 15.2367C28.13 16.884 28.3259 24.8046 28.3259 24.8948C28.3259 25.2108 28.1093 25.459 27.7829 25.459Z" fill="#595961"/>
<path opacity="0.46" fill-rule="evenodd" clip-rule="evenodd" d="M34.5644 14.3338C33.695 13.7019 32.6742 13.6117 31.5645 14.0405C29.6298 14.8302 28.2605 16.9063 27.587 20.0656C27.087 22.3897 27.1522 24.4884 27.1522 24.5787C27.1522 24.6915 27.1953 24.8044 27.2828 24.8946C27.3688 24.9848 27.4564 25.0526 27.5647 25.0526C27.5869 25.0526 27.6092 25.0526 27.63 25.0526C27.8258 25.0526 27.9786 24.8946 27.9786 24.6915C27.9786 24.6012 27.7828 16.5452 31.9785 14.8528C32.8256 14.5144 33.5644 14.5594 34.1742 15.0108C35.9338 16.297 36.456 20.6523 36.5212 22.2093C36.5212 22.4349 36.7171 22.6606 36.956 22.6831C37.1741 22.7057 37.3476 22.5477 37.3476 22.3221C37.3254 22.0513 37.0865 16.1842 34.5644 14.3338Z" fill="#B2B2C2"/>
<path opacity="0.46" fill-rule="evenodd" clip-rule="evenodd" d="M27.587 24.7818C27.5647 24.7818 27.5647 24.7818 27.544 24.7818C27.4134 24.7592 27.3036 24.6238 27.2828 24.4884C27.2828 24.3981 27.2176 22.3447 27.7176 20.0203C28.3689 16.9289 29.7397 14.8753 31.6298 14.108C32.695 13.6793 33.652 13.7696 34.4784 14.3564C36.913 16.139 37.1519 21.9159 37.1519 22.1641C37.1519 22.2995 37.0436 22.3897 36.913 22.3672C36.7824 22.3447 36.6741 22.2319 36.6518 22.0739C36.6518 22.0061 36.413 16.3421 34.2173 14.7174C33.5645 14.2436 32.7604 14.1758 31.8479 14.5368C27.587 16.3196 27.7829 24.4884 27.7829 24.5786C27.8036 24.6914 27.7175 24.7818 27.587 24.7818Z" fill="#B2B2C2"/>
<path opacity="0.62" fill-rule="evenodd" clip-rule="evenodd" d="M29.3481 18.3284C29.5217 17.9901 29.6952 17.6515 29.848 17.2905C29.7828 17.4033 29.348 18.5768 28.0217 18.3962C27.9994 18.3962 28.8036 18.6444 29.3481 18.3284Z" fill="#595961"/>
<path opacity="0.62" fill-rule="evenodd" clip-rule="evenodd" d="M28.8688 19.7722C28.9994 19.4111 29.1299 19.0275 29.2175 18.6665C29.1744 18.8019 28.9563 20.0204 27.5647 20.0204C27.5647 20.0204 28.3689 20.1784 28.8688 19.7722Z" fill="#595961"/>
<path opacity="0.62" fill-rule="evenodd" clip-rule="evenodd" d="M36.4991 16.8616C36.3256 16.4553 36.1297 16.0717 35.9338 15.6655C35.9991 15.8009 36.6519 17.0872 35.9131 18.0123C35.9131 18.0123 36.4784 17.5611 36.4991 16.8616Z" fill="#595961"/>
<path opacity="0.62" fill-rule="evenodd" clip-rule="evenodd" d="M35.3049 14.8309C34.9563 14.5375 34.609 14.2667 34.2604 14.0186C34.3909 14.1314 35.5437 14.9663 35.4784 16.2301C35.4561 16.2301 35.6521 15.4854 35.3049 14.8309Z" fill="#595961"/>
<path opacity="0.62" fill-rule="evenodd" clip-rule="evenodd" d="M29.9785 17.0871C30.2396 16.8163 30.4561 16.523 30.695 16.207C30.609 16.2972 29.891 17.2225 28.6091 16.884C28.6091 16.884 29.3479 17.2903 29.9785 17.0871Z" fill="#595961"/>
<path opacity="0.62" fill-rule="evenodd" clip-rule="evenodd" d="M30.7825 16.0491C31.0867 15.8235 31.3686 15.5978 31.6519 15.3496C31.5436 15.4174 30.652 16.1619 29.4132 15.6204C29.4132 15.6204 30.1298 16.1393 30.7825 16.0491Z" fill="#595961"/>
<path opacity="0.62" fill-rule="evenodd" clip-rule="evenodd" d="M31.9562 15.304C32.3256 15.1912 32.6743 15.0559 33.0215 14.9205C32.8909 14.9655 31.7826 15.3717 30.6951 14.5142C30.7173 14.5142 31.2826 15.1912 31.9562 15.304Z" fill="#595961"/>
<path opacity="0.62" fill-rule="evenodd" clip-rule="evenodd" d="M33.0215 14.8983C33.3256 14.9435 33.6297 14.9661 33.9339 14.9886C33.8256 14.9661 32.8686 14.8983 32.3256 13.9956C32.3256 13.9956 32.5437 14.6049 33.0215 14.8983Z" fill="#595961"/>
<path opacity="0.62" fill-rule="evenodd" clip-rule="evenodd" d="M34.2826 15.3944C34.4993 15.6427 34.7396 15.8909 34.9992 16.1165C34.9131 16.0263 34.1744 15.2816 34.3479 14.3564C34.3257 14.3564 34.0868 14.8754 34.2826 15.3944Z" fill="#595961"/>
<path opacity="0.74" fill-rule="evenodd" clip-rule="evenodd" d="M36.913 22.0518C36.913 21.8035 36.6741 16.0943 34.3048 14.3569C33.8479 14.0183 33.3479 13.8604 32.8256 13.8604C32.434 13.8604 32.0215 13.9506 31.5868 14.1311C29.6952 14.8758 28.3689 16.8842 27.7176 19.9531C27.2176 22.2548 27.2828 24.3083 27.2828 24.3986C27.2828 24.4663 27.3481 24.5339 27.4134 24.5339H27.4341C27.4994 24.5339 27.544 24.4889 27.544 24.4211C27.544 24.3309 27.3258 16.0943 31.6951 14.3343C32.652 13.9506 33.4784 14.0183 34.1742 14.5373C36.4338 16.1847 36.6741 21.939 36.6741 22.0066C36.6741 22.0744 36.7394 22.142 36.8047 22.142C36.8047 22.142 36.8047 22.142 36.8254 22.142C36.8699 22.1646 36.913 22.1194 36.913 22.0518Z" fill="url(#paint0_linear_224_1860)"/>
<path fill-rule="evenodd" clip-rule="evenodd" d="M37.2824 19.2312C36.7824 16.794 35.9561 15.1467 34.8048 14.2892C34.1742 13.838 33.4992 13.6348 32.7604 13.68C33.3479 13.725 33.8909 13.9282 34.3909 14.2892C35.5436 15.1242 36.37 16.794 36.87 19.2312C37.2172 20.9462 37.2824 22.4354 37.2824 22.5032C37.2824 22.774 37.1519 22.9771 36.9338 23.0447C36.9783 23.0673 37.0214 23.0673 37.0436 23.0673C37.413 23.1125 37.6949 22.8642 37.6741 22.5032C37.6949 22.4354 37.6296 20.9688 37.2824 19.2312Z" fill="url(#paint1_linear_224_1860)"/>
<path fill-rule="evenodd" clip-rule="evenodd" d="M31.8049 15.2366C27.7176 16.8838 27.9133 24.8045 27.9133 24.8947C27.9133 25.1654 27.7828 25.3686 27.5647 25.4362C27.6092 25.4588 27.63 25.4588 27.6745 25.4588C27.6953 25.4588 27.7398 25.4588 27.7606 25.4588C28.087 25.4588 28.3035 25.2106 28.3035 24.8947C28.3035 24.8045 28.1092 16.9064 32.1951 15.2591C32.4785 15.1463 32.7395 15.0786 32.9784 15.056C32.6297 14.9884 32.2396 15.056 31.8049 15.2366Z" fill="url(#paint2_linear_224_1860)"/>
<path fill-rule="evenodd" clip-rule="evenodd" d="M37.9991 17.1996L19.5652 23.1118C19.5652 23.1118 18.7833 23.3375 18.5875 23.5857C18.3916 23.8339 18.3486 24.5334 18.3486 24.5334L15.5 47.325L36.8908 51.4771L38.5436 17.177C38.3047 17.1319 38.0643 17.177 37.9991 17.1996Z" fill="url(#paint3_linear_224_1860)"/>
<path fill-rule="evenodd" clip-rule="evenodd" d="M44.3698 20.1333C44.3698 20.1333 44.3475 19.9528 44.2392 19.8851C44.1517 19.8174 44.0433 19.8174 44.0433 19.8174L41.0212 19.5918L38.8047 17.3126C38.7172 17.2449 38.6296 17.1998 38.5213 17.1772L36.8701 51.4773L48.4556 48.8822L44.3698 20.1333Z" fill="url(#paint4_linear_224_1860)"/>
<path fill-rule="evenodd" clip-rule="evenodd" d="M30.391 36.2452C30.0646 35.7939 29.6744 35.3877 29.2827 35.0266C28.891 34.6656 28.4786 34.3722 28.0647 34.1015C27.7828 33.9209 27.5217 33.7403 27.3036 33.5598C27.087 33.3794 26.9134 33.1988 26.7828 33.0408C26.6523 32.8602 26.5439 32.7023 26.4787 32.5219C26.4134 32.3413 26.3911 32.1607 26.3911 31.9802C26.3911 31.732 26.4564 31.4838 26.5439 31.2806C26.63 31.0776 26.7828 30.8971 26.9341 30.7391C27.1092 30.5811 27.3036 30.4683 27.5439 30.3781C27.7828 30.2877 28.0646 30.2427 28.3688 30.2201C28.6952 30.1975 29.0216 30.2201 29.3257 30.2427C29.6299 30.2652 29.9132 30.3329 30.1951 30.4005C30.4562 30.4683 30.7173 30.5585 30.9339 30.6489C31.152 30.7391 31.3686 30.8293 31.5214 30.9196L32.9562 26.4968C32.7396 26.384 32.4784 26.271 32.1951 26.2034C31.8909 26.113 31.5645 26.0454 31.1951 26.0002C30.8257 25.9552 30.434 25.9326 30.0215 25.9326C29.6091 25.9326 29.1744 25.9552 28.7175 26.0228C27.7398 26.1582 26.8689 26.429 26.087 26.8351C25.3482 27.2189 24.6954 27.7152 24.1524 28.3246C23.6301 28.9113 23.2177 29.5882 22.9135 30.3555C22.6301 31.1002 22.4566 31.9351 22.4136 32.8377C22.3913 33.3794 22.4343 33.8757 22.5649 34.3271C22.6732 34.7784 22.8482 35.2072 23.0871 35.6133C23.3037 36.0195 23.5871 36.3806 23.8912 36.719C24.1954 37.0575 24.5648 37.3735 24.9342 37.6669C25.2383 37.8925 25.4995 38.1181 25.7176 38.3212C25.9342 38.5244 26.1093 38.7274 26.2383 38.9531C26.3689 39.1561 26.4564 39.3593 26.5217 39.5849C26.587 39.788 26.6092 40.0136 26.587 40.2394C26.587 40.465 26.5217 40.6906 26.4342 40.8711C26.3482 41.0517 26.2383 41.2323 26.0647 41.3676C25.9134 41.503 25.7176 41.5932 25.4995 41.6384C25.2829 41.6834 25.0218 41.706 24.7384 41.661C24.4135 41.6158 24.0871 41.5256 23.7829 41.3901C23.4788 41.2773 23.1732 41.1193 22.8913 40.9613C22.6094 40.8035 22.3483 40.6229 22.1302 40.465C21.8914 40.307 21.6955 40.1264 21.5442 39.991L20.5649 43.3534C20.7178 43.579 20.9344 43.7822 21.1733 43.9852C21.4136 44.1883 21.6955 44.3913 22.0219 44.5945C22.3483 44.7751 22.6955 44.9555 23.0649 45.1134C23.4343 45.2714 23.8482 45.4068 24.2607 45.5198H24.2829H24.3037H24.326H24.3482C25.2384 45.7228 26.087 45.7679 26.8911 45.6551C27.7175 45.5422 28.4786 45.2488 29.1299 44.7976C29.8034 44.3237 30.3479 43.6918 30.7604 42.8569C31.1743 42.022 31.4131 41.0065 31.4562 39.8556C31.4784 39.1335 31.3909 38.5018 31.1951 37.915C30.9993 37.2381 30.7174 36.719 30.391 36.2452Z" fill="url(#paint5_linear_224_1860)"/>
<path opacity="0.226763" fill-rule="evenodd" clip-rule="evenodd" d="M20.706 43.5372C20.6555 43.4774 20.608 43.4163 20.565 43.3536L21.5442 39.9912C21.5576 40.0037 21.5724 40.0167 21.5872 40.03C21.7326 40.1599 21.9137 40.3218 22.1303 40.4651C22.3484 40.6231 22.6095 40.8037 22.8914 40.9616C23.1733 41.1195 23.4788 41.2774 23.783 41.3904C24.0871 41.5258 24.4136 41.616 24.7385 41.6612C25.0218 41.7062 25.283 41.6837 25.4996 41.6386C25.7177 41.5934 25.9135 41.5032 26.0648 41.3678C26.2384 41.2324 26.3482 41.0518 26.4342 40.8713C26.5218 40.6907 26.587 40.4651 26.587 40.2395C26.6093 40.0138 26.587 39.7882 26.5217 39.585C26.4564 39.3594 26.3689 39.1563 26.2384 38.9533C26.1152 38.7387 25.952 38.5447 25.7488 38.3516C25.8556 38.4723 25.9461 38.5961 26.0218 38.7275C26.1523 38.9307 26.2384 39.1337 26.3037 39.3594C26.369 39.5624 26.3912 39.7882 26.369 40.0138C26.369 40.2395 26.3037 40.4651 26.2176 40.6457C26.1301 40.8262 26.0218 41.0067 25.8482 41.1421C25.6954 41.2774 25.4996 41.3678 25.283 41.4128C25.0649 41.458 24.8038 41.4806 24.5219 41.4354C24.1955 41.3904 23.869 41.3 23.5649 41.1646C23.2608 41.0518 22.9566 40.8939 22.6732 40.7359C22.3913 40.5779 22.1303 40.3975 21.9137 40.2395C21.6956 40.0962 21.5146 39.9343 21.3692 39.8044C21.3544 39.7911 21.3409 39.7781 21.3261 39.7656L20.3484 43.1278C20.4448 43.2715 20.568 43.406 20.706 43.5372ZM23.9091 36.7397C23.8275 36.6589 23.7489 36.577 23.6732 36.4936C23.3691 36.155 23.0872 35.794 22.8691 35.3879C22.6302 34.9816 22.4566 34.5528 22.3483 34.1016C22.2178 33.6503 22.1732 33.1538 22.1955 32.6122C22.2385 31.7095 22.4136 30.8746 22.6955 30.1299C22.9997 29.3628 23.4136 28.6858 23.9344 28.0991C24.4788 27.4898 25.1301 26.9933 25.8689 26.6097C26.6523 26.2036 27.5217 25.9328 28.4994 25.7974C28.9563 25.7296 29.3911 25.707 29.8035 25.707C30.2175 25.707 30.6091 25.7296 30.9785 25.7748C31.348 25.82 31.6744 25.8876 31.9785 25.978C32.2604 26.0456 32.5215 26.1584 32.7396 26.2712L32.7055 26.3767C32.5482 26.3084 32.3761 26.2468 32.1951 26.2035C31.891 26.1133 31.5646 26.0456 31.1951 26.0004C30.8257 25.9554 30.434 25.9328 30.0216 25.9328C29.6091 25.9328 29.1745 25.9554 28.7175 26.023C27.7398 26.1584 26.8689 26.4291 26.0871 26.8355C25.3482 27.219 24.6954 27.7154 24.1524 28.3247C23.6302 28.9114 23.2177 29.5884 22.9136 30.3557C22.6302 31.1004 22.4566 31.9353 22.4136 32.8378C22.3914 33.3795 22.4344 33.8759 22.5649 34.3272C22.6732 34.7786 22.8483 35.2073 23.0872 35.6135C23.3038 36.0196 23.5871 36.3808 23.8913 36.7192C23.8972 36.726 23.9032 36.7329 23.9091 36.7397ZM26.8615 33.1334C26.9802 33.2676 27.1286 33.4138 27.3036 33.5599C27.5217 33.7405 27.7829 33.9211 28.0647 34.1016C28.4787 34.3724 28.8911 34.6658 29.2828 35.0267C29.397 35.1319 29.5098 35.2407 29.6225 35.3535C29.4415 35.1589 29.253 34.9748 29.0646 34.8012C28.6744 34.44 28.2606 34.1467 27.8481 33.8759C27.5648 33.6953 27.3037 33.5149 27.087 33.3343C27.0054 33.267 26.9312 33.1997 26.8615 33.1334Z" fill="#222325"/>
<path opacity="0.41" fill-rule="evenodd" clip-rule="evenodd" d="M41.7599 45.0916L41.0211 19.5921L40.8905 19.4567L41.2393 44.7304C41.2393 44.7304 38.1741 49.5595 37.7171 49.4241C37.0436 49.2211 39.0435 17.5612 39.0435 17.5612L38.8254 17.3356C38.7394 17.2678 38.6296 17.2228 38.5435 17.2002L36.913 51.0263L36.8907 51.5003L37.456 50.7556L41.7599 45.0916Z" fill="url(#paint6_linear_224_1860)"/>
<path fill-rule="evenodd" clip-rule="evenodd" d="M33.4338 18.6667C33.1742 19.7272 32.8478 20.7201 32.609 21.3294C32.4562 21.6905 32.6298 22.0289 32.9562 22.0741C33.3048 22.1193 33.695 21.8709 33.8256 21.5099C33.8478 21.4422 34.4338 19.9755 34.8047 18.2379V18.2153L33.4338 18.6667Z" fill="url(#paint7_linear_224_1860)"/>
<path fill-rule="evenodd" clip-rule="evenodd" d="M23.6303 21.8257C23.3261 22.5027 23.022 23.0894 22.8039 23.4956C22.6095 23.8341 22.7178 24.1951 23.0442 24.2853C23.3691 24.3982 23.8038 24.1951 23.9996 23.8566C24.0219 23.8115 24.6525 22.7058 25.2178 21.3066L23.6303 21.8257Z" fill="url(#paint8_linear_224_1860)"/>
<path opacity="0.32" fill-rule="evenodd" clip-rule="evenodd" d="M36.8907 51.4771L41.7599 45.0908L48.5 48.882L36.8907 51.4771Z" fill="url(#paint9_linear_224_1860)"/>
<path opacity="0.19" fill-rule="evenodd" clip-rule="evenodd" d="M36.8907 51.4771L41.7169 45.0908L48.5 48.882L36.8907 51.4771Z" fill="url(#paint10_linear_224_1860)"/>
<path opacity="0.19" fill-rule="evenodd" clip-rule="evenodd" d="M36.8907 51.4771L41.7169 45.0908L48.5 48.882L36.8907 51.4771Z" fill="url(#paint11_linear_224_1860)"/>
<path opacity="0.6" fill-rule="evenodd" clip-rule="evenodd" d="M32.1521 33.6055C34.6742 37.1483 36.3699 40.9845 37.217 44.7079L38.5434 17.155C38.3046 17.11 38.0642 17.155 37.999 17.1776L19.5651 23.1125C19.5651 23.1125 19.3914 23.1575 19.1733 23.2479C23.8482 24.9177 28.5217 28.5057 32.1521 33.6055Z" fill="url(#paint12_linear_224_1860)"/>
<path fill-rule="evenodd" clip-rule="evenodd" d="M44.2597 19.9077C44.3695 19.9981 44.3695 20.1335 44.3695 20.1335L48.4124 48.8596L41.7598 45.0686L41.021 19.5693L44.0001 19.7949C44.0209 19.8175 44.1514 19.8175 44.2597 19.9077Z" fill="url(#paint13_linear_224_1860)"/>
<path fill-rule="evenodd" clip-rule="evenodd" d="M43.7822 19.9757C43.7822 19.9757 43.9128 19.9757 44.0211 20.0885C44.1294 20.1789 44.1516 20.3143 44.1516 20.3143L48.1306 48.7246L48.4348 48.9052L44.3905 20.1563C44.3905 20.1563 44.3697 20.0209 44.2822 19.9307C44.1739 19.8403 44.0211 19.8403 44.0211 19.8403L41.0435 19.6147L43.7822 19.9757Z" fill="url(#paint14_linear_224_1860)"/>
<path fill-rule="evenodd" clip-rule="evenodd" d="M15.5 47.3249L36.8908 51.4771L37.9352 27.9634L18.1601 28.5255L15.5 47.3249Z" fill="url(#paint15_linear_224_1860)"/>
<path opacity="0.3" fill-rule="evenodd" clip-rule="evenodd" d="M22.5219 23.4406C22.3275 23.9891 22.5189 24.5653 22.9521 24.728C23.3838 24.8906 23.8912 24.5779 24.0871 24.0296C24.2814 23.4812 24.0886 22.9048 23.6568 22.7423C23.2251 22.5796 22.7162 22.8923 22.5219 23.4406Z" fill="white"/>
<path opacity="0.89" fill-rule="evenodd" clip-rule="evenodd" d="M22.4983 23.1805C22.304 23.7288 22.4968 24.3052 22.9285 24.4678C23.3603 24.6305 23.8692 24.3178 24.0635 23.7694C24.2579 23.221 24.0665 22.6446 23.6333 22.482C23.2016 22.3193 22.6941 22.632 22.4983 23.1805Z" fill="#222325"/>
<path fill-rule="evenodd" clip-rule="evenodd" d="M41.0434 19.5918L38.8254 17.3126C38.7394 17.2449 38.6296 17.1998 38.5435 17.1772L36.8907 51.4773L41.7822 45.0685L41.0434 19.5918Z" fill="url(#paint16_linear_224_1860)"/>
<path fill-rule="evenodd" clip-rule="evenodd" d="M37.9991 17.2003L19.5652 23.1125C19.5652 23.1125 18.7834 23.3382 18.5875 23.5864C18.5653 23.609 18.5652 23.6316 18.5444 23.6542L37.1297 18.3286C37.2825 18.2834 37.652 18.1481 37.6089 19.2537L36.4784 51.4326L36.8701 51.5004L38.5213 17.2003C38.3047 17.1326 38.0644 17.1778 37.9991 17.2003Z" fill="url(#paint17_linear_224_1860)"/>
<path fill-rule="evenodd" clip-rule="evenodd" d="M37.9991 17.2003L19.5652 23.1125C19.5652 23.1125 18.7834 23.3382 18.5875 23.5864C18.5653 23.609 18.5652 23.6316 18.5444 23.6542L22.8484 22.413L37.6519 17.6517C37.7172 17.6291 37.9561 17.5839 38.195 17.6291L36.5645 51.4326L36.8701 51.5004L38.5213 17.2003C38.3047 17.1326 38.0644 17.1778 37.9991 17.2003Z" fill="url(#paint18_linear_224_1860)"/>
<path opacity="0.32" fill-rule="evenodd" clip-rule="evenodd" d="M42.7393 45.6325L41.76 45.0684L36.8701 51.477L37.1297 51.4093C37.1297 51.4093 41.4351 45.6551 41.8253 45.4745C42.1087 45.3617 42.7393 45.6325 42.7393 45.6325Z" fill="url(#paint19_linear_224_1860)"/>
<path opacity="0.57" fill-rule="evenodd" clip-rule="evenodd" d="M36.8907 51.477L41.7822 45.0684C41.76 45.0909 38.6741 48.5886 36.8907 51.477Z" fill="url(#paint20_linear_224_1860)"/>
<path opacity="0.46" fill-rule="evenodd" clip-rule="evenodd" d="M48.4999 48.882L41.7821 45.0908C41.7598 45.0908 42.5432 45.2262 48.4999 48.882Z" fill="url(#paint21_linear_224_1860)"/>
<path opacity="0.3" fill-rule="evenodd" clip-rule="evenodd" d="M32.4606 21.1906C32.2648 21.739 32.4577 22.3154 32.8894 22.4781C33.3226 22.6408 33.83 22.3281 34.0244 21.7798C34.2202 21.2313 34.0273 20.6549 33.5956 20.4922C33.1639 20.3297 32.655 20.6422 32.4606 21.1906Z" fill="white"/>
<path opacity="0.89" fill-rule="evenodd" clip-rule="evenodd" d="M32.437 20.9313C32.2427 21.4798 32.4356 22.0562 32.8673 22.2189C33.2991 22.3815 33.8079 22.0689 34.0022 21.5204C34.1966 20.9721 34.0052 20.3957 33.5734 20.233C33.1402 20.0703 32.6328 20.383 32.437 20.9313Z" fill="#222325"/>
<path fill-rule="evenodd" clip-rule="evenodd" d="M23.283 24.2856C23.2607 24.2856 23.2177 24.2856 23.1954 24.2856C22.8483 24.2406 22.6094 23.9021 22.6525 23.5185C22.6955 23.1574 23.9343 14.7177 29.0216 12.7997C30.3034 12.3258 31.3909 12.416 32.2173 13.1157C33.2172 13.9506 33.7602 15.6204 33.8478 18.0575C33.913 19.7725 33.7173 21.2618 33.7173 21.3296C33.6742 21.6905 33.3478 21.9615 32.9992 21.8937C32.652 21.8485 32.3909 21.5101 32.4561 21.149C32.652 19.6146 32.8686 15.3948 31.4132 14.1762C30.9562 13.7926 30.3257 13.7474 29.4786 14.0634C25.1094 15.7106 23.9565 23.6313 23.9565 23.6989C23.869 24.0375 23.6094 24.2856 23.283 24.2856Z" fill="#595961"/>
<path opacity="0.46" fill-rule="evenodd" clip-rule="evenodd" d="M31.9563 13.1608C31.1952 12.5291 30.1953 12.4389 28.9995 12.8676C26.9343 13.6573 25.1954 15.7333 23.9996 18.87C23.1094 21.1943 22.8038 23.2929 22.8038 23.3832C22.7831 23.496 22.8261 23.6088 22.8914 23.6992C22.9567 23.7894 23.0442 23.8572 23.1525 23.8572C23.1732 23.8572 23.1955 23.8572 23.2178 23.8572C23.4136 23.8572 23.5872 23.6992 23.6094 23.496C23.6302 23.4058 24.783 15.3498 29.2828 13.6573C30.1952 13.3188 30.934 13.364 31.4562 13.8153C32.9992 15.1016 32.7826 19.4567 32.5868 21.0137C32.5645 21.2395 32.7174 21.4651 32.934 21.4877C33.1521 21.5102 33.3686 21.3523 33.3909 21.1267C33.4132 20.8783 34.1743 15.0114 31.9563 13.1608Z" fill="#B2B2C2"/>
<path opacity="0.81" fill-rule="evenodd" clip-rule="evenodd" d="M23.1956 23.6089C23.1733 23.6089 23.1733 23.6089 23.1526 23.6089C23.022 23.5863 22.9344 23.4509 22.9567 23.3156C22.979 23.2252 23.2609 21.1718 24.1525 18.8475C25.3483 15.756 27.0441 13.7025 29.0647 12.9352C30.2175 12.5064 31.1522 12.5968 31.8688 13.1835C33.9993 14.9661 33.2604 20.7431 33.2174 20.9912C33.1951 21.1266 33.0869 21.2168 32.9341 21.1944C32.805 21.1718 32.7175 21.059 32.7175 20.901C32.7175 20.8333 33.4563 15.1693 31.5439 13.5445C30.9786 13.1157 30.1953 13.0707 29.2399 13.4317C24.6525 15.1693 23.4567 23.3156 23.4567 23.4058C23.4345 23.5186 23.3261 23.6089 23.1956 23.6089Z" fill="#B2B2C2"/>
<path opacity="0.42" fill-rule="evenodd" clip-rule="evenodd" d="M26.0648 17.1546C26.3037 16.8162 26.5217 16.4777 26.7383 16.1167C26.6523 16.2295 26.0217 17.403 24.7176 17.2224C24.6954 17.2224 25.4565 17.4706 26.0648 17.1546Z" fill="#595961"/>
<path opacity="0.42" fill-rule="evenodd" clip-rule="evenodd" d="M25.326 18.5989C25.5219 18.2377 25.7177 17.8541 25.869 17.4932C25.8037 17.6286 25.369 18.847 23.9996 18.847C23.9996 18.847 24.7608 19.005 25.326 18.5989Z" fill="#595961"/>
<path opacity="0.42" fill-rule="evenodd" clip-rule="evenodd" d="M24.7607 20.0884C24.9343 19.7046 25.0649 19.3211 25.1955 18.9375C25.1302 19.0729 24.8913 20.314 23.4567 20.4719C23.4567 20.4493 24.2385 20.5397 24.7607 20.0884Z" fill="#595961"/>
<path opacity="0.62" fill-rule="evenodd" clip-rule="evenodd" d="M33.456 15.6877C33.3477 15.2814 33.2394 14.8979 33.0866 14.4917C33.1296 14.6271 33.5644 15.9133 32.6742 16.8385C32.6742 16.8385 33.3255 16.3873 33.456 15.6877Z" fill="#595961"/>
<path opacity="0.62" fill-rule="evenodd" clip-rule="evenodd" d="M32.6091 13.657C32.305 13.3637 31.9993 13.0929 31.6952 12.8447C31.805 12.9575 32.8257 13.7924 32.5438 15.0561C32.5216 15.0561 32.848 14.3114 32.6091 13.657Z" fill="#595961"/>
<path opacity="0.62" fill-rule="evenodd" clip-rule="evenodd" d="M33.6742 17.7642C33.652 17.358 33.5867 16.9293 33.5215 16.5229C33.5215 16.6809 33.7395 18.0124 32.6951 18.7345C32.6951 18.7345 33.4131 18.4185 33.6742 17.7642Z" fill="#595961"/>
<path opacity="0.62" fill-rule="evenodd" clip-rule="evenodd" d="M33.7826 19.8856C33.8049 19.4794 33.8049 19.0507 33.7826 18.6445C33.7826 18.8025 33.8048 20.1339 32.6951 20.7431C32.6951 20.7207 33.4562 20.4949 33.7826 19.8856Z" fill="#595961"/>
<path opacity="0.42" fill-rule="evenodd" clip-rule="evenodd" d="M24.2605 21.7356C24.3911 21.3294 24.4787 20.9233 24.5647 20.5396C24.5217 20.6749 24.3259 21.9612 22.9995 22.2771C23.0218 22.2771 23.8036 22.2546 24.2605 21.7356Z" fill="#595961"/>
<path opacity="0.42" fill-rule="evenodd" clip-rule="evenodd" d="M26.8912 15.9133C27.1954 15.6425 27.4787 15.3492 27.7398 15.0332C27.63 15.1234 26.7606 16.0487 25.5441 15.7101C25.5648 15.7101 26.2384 16.1164 26.8912 15.9133Z" fill="#595961"/>
<path opacity="0.42" fill-rule="evenodd" clip-rule="evenodd" d="M27.8688 14.8758C28.2174 14.6502 28.5438 14.4245 28.8687 14.1763C28.7397 14.244 27.7397 14.9886 26.5869 14.447C26.5869 14.447 27.1952 14.966 27.8688 14.8758Z" fill="#595961"/>
<path opacity="0.62" fill-rule="evenodd" clip-rule="evenodd" d="M29.1952 14.1312C29.5868 14.0182 29.9563 13.8829 30.3257 13.7475C30.1951 13.7926 29.0216 14.1988 28.0647 13.3413C28.0647 13.3413 28.5216 14.0182 29.1952 14.1312Z" fill="#595961"/>
<path opacity="0.62" fill-rule="evenodd" clip-rule="evenodd" d="M30.3034 13.7249C30.609 13.7701 30.9132 13.7927 31.2174 13.8153C31.1091 13.7927 30.1743 13.7249 29.7604 12.8223C29.7826 12.8223 29.891 13.4316 30.3034 13.7249Z" fill="#595961"/>
<path opacity="0.62" fill-rule="evenodd" clip-rule="evenodd" d="M31.4785 14.2212C31.6743 14.4694 31.8687 14.7175 32.0645 14.9433C31.9992 14.8529 31.3909 14.1084 31.6951 13.1831C31.7173 13.1831 31.3909 13.7022 31.4785 14.2212Z" fill="#595961"/>
<path fill-rule="evenodd" clip-rule="evenodd" d="M32.9782 20.8778C32.999 20.6296 33.7394 14.9205 31.6742 13.1829C31.2825 12.8445 30.8048 12.6865 30.2826 12.6865C29.8909 12.6865 29.4562 12.7767 28.9993 12.9573C26.9994 13.702 25.3258 15.7104 24.1523 18.7792C23.2606 21.081 22.9787 23.1345 22.9564 23.2247C22.9564 23.2923 22.9995 23.3601 23.0648 23.3601H23.087C23.1523 23.3601 23.1953 23.3149 23.1953 23.2473C23.2176 23.157 24.3911 14.9205 29.0645 13.1603C30.0644 12.7767 30.9131 12.8445 31.5213 13.3635C33.499 15.0107 32.7602 20.765 32.7395 20.8328C32.7395 20.9004 32.7825 20.9682 32.8478 20.9682C32.8478 20.9682 32.8477 20.9682 32.8685 20.9682C32.9338 20.9908 32.9782 20.9456 32.9782 20.8778Z" fill="url(#paint22_linear_224_1860)"/>
<path fill-rule="evenodd" clip-rule="evenodd" d="M33.8478 18.0573C33.7602 15.6202 33.2172 13.9728 32.2173 13.1153C31.6743 12.6641 31.0216 12.461 30.2827 12.5062C30.848 12.5512 31.3687 12.7544 31.8049 13.1153C32.8049 13.9504 33.3478 15.6202 33.4339 18.0573C33.4991 19.7723 33.3048 21.2616 33.3048 21.3294C33.2603 21.6001 33.0867 21.8033 32.8686 21.8709C32.9131 21.8935 32.9339 21.8935 32.9784 21.8935C33.3255 21.9387 33.652 21.6903 33.695 21.3294C33.7173 21.2616 33.9131 19.7949 33.8478 18.0573Z" fill="url(#paint23_linear_224_1860)"/>
<path fill-rule="evenodd" clip-rule="evenodd" d="M29.044 14.0634C24.6748 15.7107 23.522 23.6313 23.522 23.7216C23.479 23.9923 23.3039 24.1955 23.0873 24.2631C23.1303 24.2857 23.1526 24.2857 23.1956 24.2857C23.2178 24.2857 23.2609 24.2857 23.2831 24.2857C23.6095 24.2857 23.8692 24.0375 23.9137 23.7216C23.9344 23.6313 25.065 15.7333 29.4342 14.0859C29.7398 13.9731 29.9995 13.9055 30.2399 13.8829C29.9135 13.8377 29.4995 13.9055 29.044 14.0634Z" fill="url(#paint24_linear_224_1860)"/>
<defs>
<linearGradient id="paint0_linear_224_1860" x1="28.4163" y1="13.9113" x2="27.7345" y2="23.1936" gradientUnits="userSpaceOnUse">
<stop stop-color="white" stop-opacity="0.65"/>
<stop offset="1" stop-color="white" stop-opacity="0.01"/>
</linearGradient>
<linearGradient id="paint1_linear_224_1860" x1="33.3983" y1="19.2244" x2="38.1983" y2="23.4286" gradientUnits="userSpaceOnUse">
<stop stop-opacity="0.01"/>
<stop offset="1" stop-opacity="0.4"/>
</linearGradient>
<linearGradient id="paint2_linear_224_1860" x1="31.474" y1="24.0875" x2="36.5547" y2="19.3552" gradientUnits="userSpaceOnUse">
<stop stop-opacity="0.01"/>
<stop offset="1" stop-opacity="0.4"/>
</linearGradient>
<linearGradient id="paint3_linear_224_1860" x1="25.007" y1="10.2775" x2="5.27328" y2="33.0151" gradientUnits="userSpaceOnUse">
<stop stop-color="#B8D26E"/>
<stop offset="1" stop-color="#7FB525"/>
</linearGradient>
<linearGradient id="paint4_linear_224_1860" x1="52.0014" y1="15.9701" x2="41.1711" y2="16.1712" gradientUnits="userSpaceOnUse">
<stop stop-color="#B4E034"/>
<stop offset="1" stop-color="#60A927"/>
</linearGradient>
<linearGradient id="paint5_linear_224_1860" x1="19.7875" y1="31.1315" x2="10.9081" y2="52.7546" gradientUnits="userSpaceOnUse">
<stop stop-color="white"/>
<stop offset="1" stop-color="#CECEEB"/>
</linearGradient>
<linearGradient id="paint6_linear_224_1860" x1="32.5186" y1="84.3828" x2="46.5817" y2="84.3543" gradientUnits="userSpaceOnUse">
<stop stop-color="#1D1D1B" stop-opacity="0.5"/>
<stop offset="0.038033" stop-color="#1D1D1B" stop-opacity="0.4837"/>
<stop offset="0.4243" stop-color="#1D1D1B" stop-opacity="0.3185"/>
<stop offset="1" stop-color="#1D1D1B" stop-opacity="0.01"/>
</linearGradient>
<linearGradient id="paint7_linear_224_1860" x1="34.1519" y1="16.7008" x2="31.8188" y2="17.9565" gradientUnits="userSpaceOnUse">
<stop stop-opacity="0.01"/>
<stop offset="1" stop-opacity="0.4"/>
</linearGradient>
<linearGradient id="paint8_linear_224_1860" x1="24.3706" y1="20.4251" x2="22.7306" y2="21.8345" gradientUnits="userSpaceOnUse">
<stop stop-opacity="0.01"/>
<stop offset="1" stop-opacity="0.4"/>
</linearGradient>
<linearGradient id="paint9_linear_224_1860" x1="40.3683" y1="48.8988" x2="40.5344" y2="51.0875" gradientUnits="userSpaceOnUse">
<stop stop-opacity="0.01"/>
<stop offset="1" stop-opacity="0.4"/>
</linearGradient>
<linearGradient id="paint10_linear_224_1860" x1="36.4917" y1="45.6945" x2="36.8766" y2="51.3852" gradientUnits="userSpaceOnUse">
<stop stop-color="white" stop-opacity="0.5"/>
<stop offset="0.0896271" stop-color="white" stop-opacity="0.4552"/>
<stop offset="1" stop-color="white" stop-opacity="0.01"/>
</linearGradient>
<linearGradient id="paint11_linear_224_1860" x1="35.7513" y1="46.5796" x2="36.4361" y2="52.6585" gradientUnits="userSpaceOnUse">
<stop stop-opacity="0.01"/>
<stop offset="1" stop-opacity="0.4"/>
</linearGradient>
<linearGradient id="paint12_linear_224_1860" x1="33.0644" y1="11.6061" x2="15.5026" y2="21.7631" gradientUnits="userSpaceOnUse">
<stop stop-color="white" stop-opacity="0.5"/>
<stop offset="1" stop-color="white" stop-opacity="0.01"/>
</linearGradient>
<linearGradient id="paint13_linear_224_1860" x1="36.453" y1="64.6902" x2="51.9537" y2="64.7215" gradientUnits="userSpaceOnUse">
<stop stop-color="#1D1D1B" stop-opacity="0.5"/>
<stop offset="0.0896271" stop-color="#1D1D1B" stop-opacity="0.4552"/>
<stop offset="1" stop-color="#1D1D1B" stop-opacity="0.01"/>
</linearGradient>
<linearGradient id="paint14_linear_224_1860" x1="47.5535" y1="18.7596" x2="45.3516" y2="19.2991" gradientUnits="userSpaceOnUse">
<stop stop-color="white" stop-opacity="0.4"/>
<stop offset="1" stop-color="white" stop-opacity="0.01"/>
</linearGradient>
<linearGradient id="paint15_linear_224_1860" x1="27.7977" y1="51.7282" x2="28.9427" y2="46.208" gradientUnits="userSpaceOnUse">
<stop stop-color="#1D1D1B" stop-opacity="0.5"/>
<stop offset="0.0896271" stop-color="#1D1D1B" stop-opacity="0.4552"/>
<stop offset="1" stop-color="#1D1D1B" stop-opacity="0.01"/>
</linearGradient>
<linearGradient id="paint16_linear_224_1860" x1="34.4176" y1="83.6798" x2="48.5312" y2="83.6921" gradientUnits="userSpaceOnUse">
<stop stop-color="#1D1D1B" stop-opacity="0.5"/>
<stop offset="1" stop-color="#1D1D1B" stop-opacity="0.01"/>
</linearGradient>
<linearGradient id="paint17_linear_224_1860" x1="21.5206" y1="15.2118" x2="14.6755" y2="41.5103" gradientUnits="userSpaceOnUse">
<stop stop-color="white" stop-opacity="0.5"/>
<stop offset="1" stop-color="white" stop-opacity="0.01"/>
</linearGradient>
<linearGradient id="paint18_linear_224_1860" x1="21.5206" y1="15.2118" x2="14.6755" y2="41.5103" gradientUnits="userSpaceOnUse">
<stop stop-color="white" stop-opacity="0.5"/>
<stop offset="1" stop-color="white" stop-opacity="0.01"/>
</linearGradient>
<linearGradient id="paint19_linear_224_1860" x1="38.1327" y1="42.779" x2="32.7223" y2="50.2257" gradientUnits="userSpaceOnUse">
<stop stop-color="white" stop-opacity="0.5"/>
<stop offset="0.0896271" stop-color="white" stop-opacity="0.4552"/>
<stop offset="1" stop-color="white" stop-opacity="0.01"/>
</linearGradient>
<linearGradient id="paint20_linear_224_1860" x1="39.7645" y1="44.4911" x2="39.2288" y2="45.6919" gradientUnits="userSpaceOnUse">
<stop stop-opacity="0.01"/>
<stop offset="1" stop-opacity="0.4"/>
</linearGradient>
<linearGradient id="paint21_linear_224_1860" x1="45.0772" y1="46.0788" x2="45.0507" y2="46.4016" gradientUnits="userSpaceOnUse">
<stop stop-opacity="0.01"/>
<stop offset="1" stop-opacity="0.4"/>
</linearGradient>
<linearGradient id="paint22_linear_224_1860" x1="25.5943" y1="11.9269" x2="23.2553" y2="21.1669" gradientUnits="userSpaceOnUse">
<stop stop-color="white" stop-opacity="0.65"/>
<stop offset="1" stop-color="white" stop-opacity="0.01"/>
</linearGradient>
<linearGradient id="paint23_linear_224_1860" x1="30.8287" y1="17.2573" x2="34.8974" y2="21.3938" gradientUnits="userSpaceOnUse">
<stop stop-opacity="0.01"/>
<stop offset="1" stop-opacity="0.4"/>
</linearGradient>
<linearGradient id="paint24_linear_224_1860" x1="28.2281" y1="23.3491" x2="33.8496" y2="17.5758" gradientUnits="userSpaceOnUse">
<stop stop-opacity="0.01"/>
<stop offset="1" stop-opacity="0.4"/>
</linearGradient>
</defs>
</svg>
