<svg width="118" height="32" viewBox="0 0 118 32" fill="none" xmlns="http://www.w3.org/2000/svg">
<path d="M39.6857 23.6643L41.002 20.607C42.4245 21.6686 44.3141 22.2206 46.1825 22.2206C47.5625 22.2206 48.433 21.6898 48.433 20.883C48.4118 18.6325 40.174 20.3947 40.1103 14.7471C40.0891 11.8809 42.6368 9.6728 46.2462 9.6728C48.3906 9.6728 50.5349 10.2036 52.0636 11.4138L50.8322 14.5348C49.4309 13.6431 47.6899 13.0061 46.0339 13.0061C44.9086 13.0061 44.1655 13.5369 44.1655 14.2163C44.1867 16.4244 52.4882 15.2142 52.5731 20.607C52.5731 23.5369 50.0891 25.5964 46.5222 25.5964C43.9107 25.5964 41.5116 24.9807 39.6857 23.6643ZM90.1952 19.5029C89.5371 20.6494 88.3056 21.435 86.8831 21.435C84.7812 21.435 83.0827 19.7365 83.0827 17.6346C83.0827 15.5327 84.7812 13.8342 86.8831 13.8342C88.3056 13.8342 89.5371 14.6197 90.1952 15.7662L93.8258 13.7492C92.467 11.3288 89.8555 9.6728 86.8831 9.6728C82.4882 9.6728 78.9213 13.2397 78.9213 17.6346C78.9213 22.0295 82.4882 25.5964 86.8831 25.5964C89.8768 25.5964 92.467 23.9615 93.8258 21.5199L90.1952 19.5029ZM54.399 3.06982H58.9426V25.2991H54.399V3.06982ZM95.6092 3.06982V25.2991H100.153V18.6325L105.546 25.2991H111.363L104.505 17.3798L110.853 9.99127H105.291L100.153 16.1272V3.06982H95.6092ZM72.4458 19.5454C71.7876 20.6282 70.4288 21.435 68.9001 21.435C66.7982 21.435 65.0997 19.7365 65.0997 17.6346C65.0997 15.5327 66.7982 13.8342 68.9001 13.8342C70.4288 13.8342 71.7876 14.6834 72.4458 15.7874V19.5454ZM72.4458 9.99127V11.7959C71.7027 10.5433 69.8555 9.6728 67.9235 9.6728C63.932 9.6728 60.7897 13.1972 60.7897 17.6133C60.7897 22.0295 63.932 25.5964 67.9235 25.5964C69.8555 25.5964 71.7027 24.7259 72.4458 23.4732V25.2779H76.9893V9.99127H72.4458Z" fill="#B8B9B9"/>
<path d="M11.5966 19.5242C11.5966 21.0741 10.3439 22.3268 8.794 22.3268C7.24411 22.3268 5.99146 21.0741 5.99146 19.5242C5.99146 17.9743 7.24411 16.7217 8.794 16.7217H11.5966V19.5242ZM12.9978 19.5242C12.9978 17.9743 14.2505 16.7217 15.8004 16.7217C17.3503 16.7217 18.6029 17.9743 18.6029 19.5242V26.5306C18.6029 28.0805 17.3503 29.3331 15.8004 29.3331C14.2505 29.3331 12.9978 28.0805 12.9978 26.5306V19.5242Z" fill="#B8B9B9"/>
<path d="M15.8004 8.2716C14.2505 8.2716 12.9978 7.01895 12.9978 5.46905C12.9978 3.91916 14.2505 2.6665 15.8004 2.6665C17.3503 2.6665 18.6029 3.91916 18.6029 5.46905V8.2716H15.8004ZM15.8004 9.69411C17.3503 9.69411 18.6029 10.9468 18.6029 12.4967C18.6029 14.0465 17.3503 15.2992 15.8004 15.2992H8.77276C7.22287 15.2992 5.97021 14.0465 5.97021 12.4967C5.97021 10.9468 7.22287 9.69411 8.77276 9.69411H15.8004Z" fill="#B8B9B9"/>
<path d="M27.0318 12.4967C27.0318 10.9468 28.2844 9.69411 29.8343 9.69411C31.3842 9.69411 32.6369 10.9468 32.6369 12.4967C32.6369 14.0465 31.3842 15.2992 29.8343 15.2992H27.0318V12.4967ZM25.6305 12.4967C25.6305 14.0465 24.3778 15.2992 22.8279 15.2992C21.278 15.2992 20.0254 14.0465 20.0254 12.4967V5.46905C20.0254 3.91916 21.278 2.6665 22.8279 2.6665C24.3778 2.6665 25.6305 3.91916 25.6305 5.46905V12.4967Z" fill="#B8B9B9"/>
<path d="M22.8279 23.728C24.3778 23.728 25.6305 24.9807 25.6305 26.5306C25.6305 28.0805 24.3778 29.3331 22.8279 29.3331C21.278 29.3331 20.0254 28.0805 20.0254 26.5306V23.728H22.8279ZM22.8279 22.3268C21.278 22.3268 20.0254 21.0741 20.0254 19.5242C20.0254 17.9743 21.278 16.7217 22.8279 16.7217H29.8555C31.4054 16.7217 32.6581 17.9743 32.6581 19.5242C32.6581 21.0741 31.4054 22.3268 29.8555 22.3268H22.8279Z" fill="#B8B9B9"/>
</svg>
